# xmcd CD database file
#
# Track frame offsets:
#	150
#	15388
#	32852
#	49605
#	65839
#	83515
#	95813
#	111815
#	123060
#	136586
#	156576
#	175410
#	184431
#	205573
#	223180
#	238782
#	253091
#	267855
#	280042
#	292210
#	308446
#
# Disc length: 4365 seconds
#
# Revision: 0
# Processed by: cddbd v1.5.2PL0 Copyright (c) Steve Scherf et al.
# Submitted via: CDex 1.51
#
DISCID=33110b15
DTITLE=Corner House Jazz Band - Saratoga Shout
DYEAR=1900
DGENRE=Jazz
TTITLE0=Decateur Street Tutti
TTITLE1=Mardi Gras Ball
TTITLE2=Just Once For All Time
TTITLE3=Hysterics Rag
TTITLE4=Friendless Blues
TTITLE5=Oh Gee Say Gee
TTITLE6=Tijuana
TTITLE7=I Can't Escape From You
TTITLE8=Piggly Wiggly
TTITLE9=Mama I Wanna Make Rhythm
TTITLE10=Lina Blues
TTITLE11=Tears
TTITLE12=Gettysburg March
TTITLE13=You Don't Love Me
TTITLE14=Hot Lips
TTITLE15=For Ever More
TTITLE16=Semper Fidelis
TTITLE17=Black Cat On The Fence
TTITLE18=Charlie My Boy
TTITLE19=Keyhole Blues
TTITLE20=Saratoga Shout
EXTD=
EXTT0=
EXTT1=
EXTT2=
EXTT3=
EXTT4=
EXTT5=
EXTT6=
EXTT7=
EXTT8=
EXTT9=
EXTT10=
EXTT11=
EXTT12=
EXTT13=
EXTT14=
EXTT15=
EXTT16=
EXTT17=
EXTT18=
EXTT19=
EXTT20=
PLAYORDER=
